# xmcd CD database file
#
# Track frame offsets:
#	150
#	16557
#	37376
#	42672
#	68036
#	86461
#	108532
#	125213
#	143036
#	161218
#	166297
#	175269
#	190634
#	202923
#	220954
#
# Disc length: 3634 seconds
#
# Revision: 8
# Processed by: cddbd v1.4PL0 Copyright (c) Steve Scherf et al.
# Submitted via: CDex 1.50
#
DISCID=d70e300f
DTITLE=Ani DiFranco - Living In Clip Disc 2
DYEAR=1997
DGENRE=Folk/Rock
TTITLE0=Untouchable Face
TTITLE1=Shameless
TTITLE2=Distracted
TTITLE3=Adam and Eve
TTITLE4=Fire Door
TTITLE5=Both Hands
TTITLE6=Out of Habit
TTITLE7=Every State Line
TTITLE8=Not So Soft
TTITLE9=Travel Tips
TTITLE10=Wrong With Me
TTITLE11=In or Out
TTITLE12=We're All Gonna Blow
TTITLE13=Letter to a John
TTITLE14=Overlap
EXTD=YEAR: 1997
EXTT0=
EXTT1=
EXTT2=
EXTT3=
EXTT4=
EXTT5=
EXTT6=
EXTT7=
EXTT8=
EXTT9=
EXTT10=
EXTT11=
EXTT12=
EXTT13=
EXTT14=
PLAYORDER=
